<svg width="90" height="90" viewBox="0 0 90 90" fill="none" xmlns="http://www.w3.org/2000/svg">
<rect width="90" height="90" rx="45" fill="white"/>
<circle cx="44.373" cy="50.5" r="16.5" fill="black"/>
<circle cx="40.2949" cy="41.0195" r="3" fill="#E9E9E9"/>
<circle cx="34.7695" cy="46.4688" r="1.5" fill="#E9E9E9"/>
<path d="M20.0684 27.7182L28.6943 32.169L21.6709 35.8517L20.0684 27.7182Z" fill="black"/>
<path d="M20.0684 27.7182L28.6943 32.169L21.6709 35.8517L20.0684 27.7182Z" fill="black"/>
<path d="M12.6817 34.0478L20.0617 36.9791L14.8663 41.497L12.6817 34.0478Z" fill="black"/>
<path d="M12.6817 34.0478L20.0617 36.9791L14.8663 41.497L12.6817 34.0478Z" fill="black"/>
<path d="M30.13 22.7129L38.3726 29.4443L29.3633 31.7236L30.13 22.7129Z" fill="black"/>
<path d="M30.13 22.7129L38.3726 29.4443L29.3633 31.7236L30.13 22.7129Z" fill="black"/>
<path d="M6.89031 42.4753L14.2319 42.4753L9.05137 48.788L6.89031 42.4753Z" fill="black"/>
<path d="M6.89031 42.4753L14.2319 42.4753L9.05137 48.788L6.89031 42.4753Z" fill="black"/>
<path d="M67.9648 29.0229L59.3389 33.4737L66.3623 37.1564L67.9648 29.0229Z" fill="black"/>
<path d="M67.9648 29.0229L59.3389 33.4737L66.3623 37.1564L67.9648 29.0229Z" fill="black"/>
<path d="M75.3515 35.3485L67.9715 38.2798L73.1669 42.7978L75.3515 35.3485Z" fill="black"/>
<path d="M75.3515 35.3485L67.9715 38.2798L73.1669 42.7978L75.3515 35.3485Z" fill="black"/>
<path d="M80.6794 43.2144L74.166 43.8803L78.6283 50.2257L80.6794 43.2144Z" fill="black"/>
<path d="M80.6794 43.2144L74.166 43.8803L78.6283 50.2257L80.6794 43.2144Z" fill="black"/>
<path d="M57.8639 23.2776L49.4886 29.7953L58.4499 32.3056L57.8639 23.2776Z" fill="black"/>
<path d="M57.8639 23.2776L49.4886 29.7953L58.4499 32.3056L57.8639 23.2776Z" fill="black"/>
<path d="M43.9296 20.0014L39.0416 29.4465L49.0094 29.4465L43.9296 20.0014Z" fill="black"/>
<path d="M43.9296 20.0014L39.0416 29.4465L49.0094 29.4465L43.9296 20.0014Z" fill="black"/>
<path d="M77.7197 50.0785C72.0511 58.1646 62.2658 71 44.3063 71C35.2025 71 27.381 66.5205 21.3795 61.386C15.8138 56.6244 11.898 51.3719 10.0719 48.8287C13.9179 42.7472 25.7179 30 43.536 30C52.6957 30 60.7171 33.7952 66.7746 38.3121C72.4874 42.5719 76.3405 47.3875 77.7197 50.0785Z" stroke="black" stroke-width="2" stroke-miterlimit="8.2289"/>
</svg>
